<?xml version="1.0" encoding="utf-8"?>
<!-- Generator: Adobe Illustrator 23.0.1, SVG Export Plug-In . SVG Version: 6.00 Build 0)  -->
<svg version="1.1" id="Layer_1" xmlns="http://www.w3.org/2000/svg" xmlns:xlink="http://www.w3.org/1999/xlink" x="0px" y="0px"
	 viewBox="0 0 700 700" style="enable-background:new 0 0 700 700;" xml:space="preserve">
<style type="text/css">
	.st0{fill:none;stroke:#FFF;stroke-width:24;stroke-miterlimit:10;}
</style>
<polygon style="fill: #FFF" points="251.8,350 215.9,422 0,350 215.9,278 "/>
<polygon style="fill: #FFF" points="422,215.9 350,251.8 278,215.9 350,0 "/>
<polygon style="fill: #FFF" points="422,484.1 350,700 278,484.1 350,448.2 "/>
<polygon style="fill: #FFF" points="700,350 484.1,422 448.2,350 484.1,278 "/>
<polygon class="st0" points="484.1,422 546.3,546.3 422,484.1 350,448.2 278,484.1 153.7,546.3 215.9,422 251.8,350 215.9,278 
	153.7,153.7 278,215.9 350,251.8 422,215.9 546.3,153.7 484.1,278 448.2,350 "/>
</svg>
