<?xml version="1.0" encoding="utf-8"?>
<!-- Generator: Adobe Illustrator 23.0.1, SVG Export Plug-In . SVG Version: 6.00 Build 0)  -->
<svg version="1.1" id="Layer_1" xmlns="http://www.w3.org/2000/svg" xmlns:xlink="http://www.w3.org/1999/xlink" x="0px" y="0px"
	 viewBox="0 0 700 700" style="enable-background:new 0 0 700 700;" xml:space="preserve">
<style type="text/css">
	.st0{fill:none;stroke:#28292F;stroke-width:24;stroke-miterlimit:10;}
	.st1{fill:#28292F;stroke:#28292F;stroke-width:24;stroke-miterlimit:10;}
</style>
<polygon class="st0" points="262.7,350 230.8,414 39,350 230.8,286 "/>
<polygon class="st0" points="414,230.8 350,262.7 286,230.8 350,39 "/>
<polygon class="st0" points="414,469.2 350,661 286,469.2 350,437.3 "/>
<polygon class="st0" points="661,350 469.2,414 437.3,350 469.2,286 "/>
<polygon class="st1" points="469.2,414 524.4,524.4 414,469.2 350,437.3 286,469.2 175.6,524.4 230.8,414 262.7,350 230.8,286 
	175.6,175.6 286,230.8 350,262.7 414,230.8 524.4,175.6 469.2,286 437.3,350 "/>
</svg>
